<svg width="25" height="21" viewBox="0 0 25 21" fill="none" xmlns="http://www.w3.org/2000/svg">
<path d="M13.9845 17.766L13.047 15.2974H5.05614L4.11663 17.8197C3.74929 18.8029 3.43702 19.4657 3.1778 19.8109C2.91925 20.1554 2.49416 20.3273 1.90453 20.3273C1.40355 20.3273 0.961667 20.1453 0.576194 19.7786C0.192065 19.412 0 18.9963 0 18.5309C0 18.2643 0.0436511 17.9856 0.132968 17.7015C0.222956 17.4148 0.370699 17.0159 0.576194 16.5082L5.6048 3.74191C5.74784 3.37524 5.91976 2.9347 6.12056 2.42029C6.32336 1.90587 6.53759 1.48011 6.76458 1.1403C6.99358 0.800494 7.29175 0.525828 7.66513 0.314959C8.03516 0.105434 8.49182 0 9.03846 0C9.59317 0 10.0572 0.104763 10.4252 0.314959C10.7986 0.525156 11.0954 0.795793 11.3251 1.12687C11.5528 1.45727 11.7448 1.81253 11.9006 2.19263C12.0564 2.57273 12.2559 3.07975 12.4976 3.71572L17.6344 16.4014C18.0366 17.3671 18.2368 18.0675 18.2368 18.5067C18.2368 18.9641 18.0474 19.3824 17.6659 19.7605C17.2858 20.1399 16.8278 20.332 16.2899 20.332C15.9776 20.332 15.7104 20.2756 15.4874 20.1641C15.2631 20.0526 15.0757 19.8989 14.9233 19.7075C14.7695 19.5154 14.607 19.2192 14.4337 18.8237C14.2598 18.4201 14.11 18.0689 13.9845 17.766ZM6.10041 12.3083H11.9738L9.00959 4.19453L6.10041 12.3083ZM24.5339 17.3174L20.6006 7.69804C20.4173 7.21653 20.2635 6.8324 20.1426 6.54364C20.0231 6.25554 19.8767 5.98692 19.7034 5.73575C19.5288 5.48526 19.3005 5.28044 19.0184 5.12262C18.7377 4.96414 18.3865 4.88489 17.9654 4.88624C17.5498 4.88825 17.2032 4.96884 16.9225 5.12867C16.6391 5.28917 16.4135 5.49937 16.2409 5.75792C16.0676 6.01714 15.9071 6.3415 15.754 6.73234C15.656 6.9835 15.572 7.20176 15.4921 7.40726L16.9292 10.9591L17.9527 8.07478L20.2246 14.2262L18.2542 14.235L19.1319 16.3994C19.146 16.4363 19.1568 16.4665 19.1722 16.5028L21.0479 16.4947L21.7658 18.3664C21.8638 18.5974 21.9766 18.8626 22.1116 19.1642C22.2439 19.4657 22.3708 19.69 22.4877 19.8357C22.6032 19.9815 22.7462 20.0963 22.9168 20.1809C23.0861 20.2649 23.2909 20.3072 23.5279 20.3072C23.9336 20.3058 24.2821 20.1587 24.5695 19.8713C24.8596 19.5805 25.0013 19.2642 25 18.9177C24.9966 18.5819 24.8422 18.0501 24.5339 17.3174Z" fill="#93AABB"/>
</svg>
