<svg width="211" height="205" viewBox="0 0 211 205" fill="none" xmlns="http://www.w3.org/2000/svg">
<g clip-path="url(#clip0)">
<path d="M5.21959 44.5696C-0.450415 43.3096 -0.880414 40.5796 1.01959 36.5796C6.89959 24.8096 14.2496 14.0896 21.8196 3.36961C24.3396 0.00960946 29.3896 1.26961 33.7996 0.849609L35.0596 26.9096C36.7396 55.4896 35.6896 84.4996 37.5796 113.3C38.4196 127.38 38.4196 141.89 40.7296 156.18C41.9896 163.12 34.6296 163.54 30.6396 165.85C28.1196 164.59 27.9096 163.12 27.6996 161.23C25.5996 145.89 24.7596 130.12 24.7596 114.78C24.7596 82.6196 24.7596 50.4596 24.1296 18.2996C16.9896 26.6996 12.3596 36.5796 5.21959 44.5696Z" fill="#93AABB"/>
<path d="M128.811 29.2301C125.871 30.0701 120.611 30.0701 118.511 28.6001C119.351 18.7201 118.931 12.2101 115.151 10.5201C107.161 7.37007 93.7113 25.6501 85.3013 39.3201C71.8513 61.6001 68.2713 81.7701 68.2713 108.47C71.2113 102.59 73.1013 98.5901 75.4213 94.6001C80.6713 85.7701 87.6113 76.5201 98.3313 73.7901C108.841 70.8501 119.351 76.5201 122.501 85.1401C128.181 100.9 128.181 135.59 107.581 159.76C96.6513 172.79 80.4713 170.9 69.9613 157.87C60.5013 146.31 57.5613 133.28 56.3013 119.62C53.7813 90.8201 57.7713 61.8201 72.4813 35.3301C78.3613 24.6001 85.3013 14.3001 96.0213 6.53007C109.471 -2.92993 124.611 -2.92993 128.181 11.9901C129.441 16.8301 129.651 23.1301 128.811 29.2301ZM75.4213 131.17C75.4213 145.46 79.2013 156.81 87.8213 158.28C96.6513 159.54 102.111 153.66 105.271 147.35C114.731 129.27 117.461 111.62 111.581 91.6501C109.271 84.0801 102.541 80.3001 95.8213 85.7601C84.6713 94.6001 75.4213 113.72 75.4213 131.17Z" fill="#93AABB"/>
<path d="M210.64 147.25C165.28 163.37 121.77 185.09 76.8496 204.2C75.1396 200.8 72.8896 198.94 73.0996 195.28C116.81 173.49 161.22 153.01 207.51 136.98C210.44 141.27 210.95 142.65 210.64 147.25Z" fill="#93AABB"/>
</g>
<defs>
<clipPath id="clip0">
<rect width="210.72" height="204.2" fill="white"/>
</clipPath>
</defs>
</svg>
