<svg width="197" height="205" viewBox="0 0 197 205" fill="none" xmlns="http://www.w3.org/2000/svg">
<g clip-path="url(#clip0)">
<path d="M67.0597 79.961C66.4297 99.511 62.8497 117.581 53.3997 134.401C47.5097 145.541 34.2697 153.321 25.2297 150.801C17.8697 148.911 13.8797 143.021 10.5197 136.931C3.1597 123.691 1.4797 108.971 0.639701 94.051C-0.620299 76.601 -0.410299 58.741 4.8397 41.711C6.0997 38.351 7.1497 35.191 8.6197 32.251C18.4997 11.441 39.3097 9.97101 52.1297 29.101C62.8597 44.651 66.4297 62.101 67.0597 79.961ZM13.2497 85.431C12.8297 91.311 13.6697 98.881 14.2997 106.451C15.5597 116.121 17.6597 125.581 23.1297 133.561C27.7497 140.501 33.0097 140.921 38.8897 135.031C43.5097 131.041 46.0397 125.571 47.9297 119.481C52.7597 103.301 54.6597 86.271 54.6597 69.241C54.6597 56.631 50.2497 45.071 42.4697 34.981C34.8997 25.101 23.9697 26.781 19.1397 38.551C18.2997 40.441 17.8797 42.541 17.4597 44.651C14.2997 57.471 13.2497 70.511 13.2497 85.431Z" fill="#93AABB"/>
<path d="M124.871 99.0907C113.101 99.7207 102.381 99.5107 91.2406 99.0907C83.0406 98.8807 80.7306 96.9907 80.9406 88.7907C81.7806 63.9907 88.3006 40.0307 93.1306 15.8507C93.7606 12.2807 94.8106 8.70066 95.6506 5.34066C98.5906 4.08066 101.111 4.08066 104.061 5.34066L93.1306 87.9507H125.291C126.971 58.7307 130.971 29.5207 134.751 0.0906593C138.531 -0.329341 141.051 0.720659 144.421 2.40066C142.111 30.3607 140.221 58.5207 140.011 87.3207H153.251C154.301 90.8907 153.041 93.4207 152.411 96.5707C148.421 97.2007 144.841 97.6207 140.221 98.4607V166.141C127.191 168.451 124.671 165.931 124.881 153.741C125.291 135.881 124.871 117.591 124.871 99.0907Z" fill="#93AABB"/>
<path d="M196.19 147.331C150.83 163.451 107.32 185.171 62.4004 204.281C60.6904 200.881 58.4404 199.021 58.6504 195.361C102.36 173.571 146.77 153.091 193.06 137.061C195.99 141.351 196.51 142.731 196.19 147.331Z" fill="#93AABB"/>
</g>
<defs>
<clipPath id="clip0">
<rect width="196.27" height="204.28" fill="white"/>
</clipPath>
</defs>
</svg>
