<svg width="145" height="202" viewBox="0 0 145 202" fill="none" xmlns="http://www.w3.org/2000/svg">
<g clip-path="url(#clip0)">
<path d="M80.6985 150.72C73.3385 157.03 68.5085 155.34 66.1985 147.15L57.5785 115.83C44.1285 118.35 31.5185 122.77 18.2685 125.92C15.7485 133.49 15.3285 141.47 13.4385 149.04C11.9685 156.19 9.02855 158.5 3.13855 157.03C0.408546 156.4 -0.431454 155.98 0.198546 153.04C11.7585 107.22 19.5385 60.7696 33.1985 15.3696C34.4585 11.5896 35.5085 8.21956 36.9785 4.64956C37.8185 2.33956 39.2885 0.239557 41.1785 0.0295571C42.4385 -0.180443 44.1185 1.49956 44.7485 3.17956C48.5285 11.5896 49.7885 20.2096 51.6885 29.0296C60.0985 65.5996 66.1885 102.18 76.9085 138.33C78.3885 142.53 79.8585 146.31 80.6985 150.72ZM40.5585 31.7596C31.9385 59.0796 25.2185 86.6196 19.9585 114.57C32.1485 111.63 43.7085 108.68 55.4785 105.74C50.4285 80.9396 45.3885 56.3496 40.5585 31.7596Z" fill="#93AABB"/>
<path d="M144.878 144.319C99.5179 160.439 56.0079 182.159 11.0879 201.269C9.37791 197.869 7.12791 196.009 7.33791 192.349C51.0479 170.559 95.4579 150.079 141.748 134.049C144.678 138.339 145.198 139.719 144.878 144.319Z" fill="#93AABB"/>
</g>
<defs>
<clipPath id="clip0">
<rect width="144.96" height="201.26" fill="white"/>
</clipPath>
</defs>
</svg>
