<svg width="157" height="200" viewBox="0 0 157 200" fill="none" xmlns="http://www.w3.org/2000/svg">
<g clip-path="url(#clip0)">
<path d="M0 7.44056C14.29 1.34056 26.69 -2.22944 41.83 1.55055C52.34 4.08055 58.64 14.8006 59.27 27.6206C59.9 40.0206 54.23 49.4806 47.08 58.7306L43.72 62.9306C51.71 62.9306 59.06 63.1406 66.42 65.6606C81.55 70.4906 88.28 82.0506 90.38 96.5606C92.9 114.851 84.5 128.511 69.15 138.181C54.44 147.221 44.35 152.471 27.32 155.841C25.43 156.051 21.44 156.681 18.7 156.681C11.98 107.071 1.05 57.8906 0 7.44056ZM17.45 66.5006C35.53 61.2506 48.98 35.6006 45.41 20.8906C44.78 17.1106 43.1 12.9006 39.11 11.4306C29.65 8.07056 20.61 10.3806 11.78 13.5306L17.45 66.5006ZM27.75 143.851C29.64 143.641 31.32 142.801 31.74 142.591C44.56 137.551 57.8 133.131 68.31 123.251C83.02 108.751 80.71 86.2606 63.27 77.4306C48.77 70.2806 33.63 72.1806 18.5 78.0606C21.86 99.9206 24.8 122.411 27.75 143.851Z" fill="#93AABB"/>
<path d="M156.659 142.491C111.299 158.611 67.7892 180.331 22.8692 199.441C21.1592 196.041 18.9092 194.181 19.1192 190.521C62.8292 168.731 107.239 148.251 153.529 132.221C156.469 136.511 156.979 137.891 156.659 142.491Z" fill="#93AABB"/>
</g>
<defs>
<clipPath id="clip0">
<rect width="156.74" height="199.44" fill="white"/>
</clipPath>
</defs>
</svg>
