<svg width="197" height="204" viewBox="0 0 197 204" fill="none" xmlns="http://www.w3.org/2000/svg">
<g clip-path="url(#clip0)">
<path d="M67.0617 79.0294C66.4317 98.5794 62.8617 116.649 53.4017 133.469C47.5117 144.609 34.2717 152.389 25.2317 149.869C17.8717 147.979 13.8817 142.089 10.5217 135.999C3.16165 122.759 1.48165 108.039 0.641654 93.1194C-0.618346 75.6694 -0.408346 57.8094 4.84165 40.7794C6.10165 37.4194 7.15165 34.2594 8.62165 31.3194C18.5017 10.5094 39.3117 9.03937 52.1317 28.1694C62.8617 43.7194 66.4317 61.1694 67.0617 79.0294ZM13.2517 84.4994C12.8317 90.3794 13.6717 97.9494 14.3017 105.519C15.5617 115.189 17.6617 124.649 23.1317 132.629C27.7517 139.569 33.0117 139.989 38.8917 134.099C43.5117 130.109 46.0417 124.639 47.9317 118.549C52.7617 102.369 54.6617 85.3394 54.6617 68.3094C54.6617 55.6994 50.2517 44.1394 42.4717 34.0494C34.9017 24.1694 23.9717 25.8494 19.1417 37.6194C18.3017 39.5094 17.8817 41.6094 17.4617 43.7194C14.3017 56.5394 13.2517 69.5694 13.2517 84.4994Z" fill="#93AABB"/>
<path d="M78.4211 43.72C72.7411 42.46 72.3211 39.73 74.2211 35.73C80.1011 23.96 87.4511 13.24 95.0211 2.52C97.5411 -0.84 102.591 0.42 107.001 0L108.261 26.06C109.941 54.64 108.891 83.65 110.781 112.45C111.621 126.53 111.621 141.04 113.931 155.33C115.191 162.27 107.831 162.69 103.841 165C101.321 163.74 101.111 162.27 100.901 160.38C98.8011 145.04 97.9611 129.27 97.9611 113.93C97.9611 81.77 97.9611 49.61 97.3311 17.45C90.1911 25.85 85.5611 35.73 78.4211 43.72Z" fill="#93AABB"/>
<path d="M196.19 146.401C150.83 162.521 107.32 184.241 62.4004 203.351C60.6904 199.951 58.4404 198.091 58.6504 194.431C102.36 172.641 146.77 152.161 193.06 136.131C195.99 140.421 196.51 141.801 196.19 146.401Z" fill="#93AABB"/>
</g>
<defs>
<clipPath id="clip0">
<rect width="196.27" height="203.35" fill="white"/>
</clipPath>
</defs>
</svg>
