<svg width="173" height="204" viewBox="0 0 173 204" fill="none" xmlns="http://www.w3.org/2000/svg">
<g clip-path="url(#clip0)">
<path d="M5.22085 43.72C-0.459147 42.46 -0.879147 39.73 1.01085 35.73C6.90085 23.96 14.2509 13.24 21.8209 2.52C24.3409 -0.84 29.3909 0.42 33.8009 0L35.0609 26.06C36.7409 54.64 35.6909 83.65 37.5809 112.45C38.4209 126.53 38.4209 141.04 40.7309 155.33C41.9909 162.27 34.6309 162.69 30.6409 165C28.1209 163.74 27.9109 162.27 27.7009 160.38C25.6009 145.04 24.7609 129.27 24.7609 113.93C24.7609 81.77 24.7609 49.61 24.1309 17.45C16.9909 25.85 12.3609 35.73 5.22085 43.72Z" fill="#93AABB"/>
<path d="M54.6109 124.85C57.3409 120.44 64.2809 120.23 67.4309 122.96C65.9609 130.11 67.0109 135.57 69.3209 141.25C72.8909 150.71 81.9309 150.29 90.1309 143.56C104.631 131.79 111.991 110.35 113.461 89.3305C94.7509 93.9505 81.5109 89.5405 71.2109 74.2005C60.4909 58.6505 57.3409 42.0405 61.7509 24.6005C65.1209 10.5105 77.1009 0.000482246 89.7109 1.68048C101.901 3.15048 110.731 13.6605 115.981 22.2805C123.971 35.7305 126.911 50.2405 127.751 65.3705C129.431 90.1705 125.651 111.4 111.991 135.99C108.421 142.93 102.741 150.7 96.2309 155.75C84.0409 165 70.1709 162.69 61.7609 151.34C56.5009 144.61 53.7709 134.52 54.6109 124.85ZM115.781 74.2005C115.781 54.6505 108.841 26.4905 97.2809 17.2405C89.5009 10.9305 82.5709 12.2005 78.7809 21.0205C71.4209 36.1505 76.4709 61.5905 89.0809 73.1505C96.8609 80.2905 107.791 81.1305 115.781 74.2005Z" fill="#93AABB"/>
<path d="M172.811 146.401C127.451 162.521 83.9415 184.241 39.0215 203.351C37.3115 199.951 35.0615 198.091 35.2715 194.431C78.9815 172.641 123.391 152.161 169.681 136.131C172.611 140.421 173.121 141.801 172.811 146.401Z" fill="#93AABB"/>
</g>
<defs>
<clipPath id="clip0">
<rect width="172.89" height="203.35" fill="white"/>
</clipPath>
</defs>
</svg>
