<svg width="175" height="204" viewBox="0 0 175 204" fill="none" xmlns="http://www.w3.org/2000/svg">
<g clip-path="url(#clip0)">
<path d="M5.21959 43.72C-0.450415 42.46 -0.880414 39.73 1.01959 35.73C6.89959 23.96 14.2496 13.24 21.8196 2.52C24.3396 -0.84 29.3896 0.42 33.7996 0L35.0596 26.06C36.7396 54.65 35.6896 83.65 37.5796 112.45C38.4196 126.53 38.4196 141.04 40.7296 155.33C41.9896 162.27 34.6296 162.69 30.6396 165C28.1196 163.74 27.9096 162.27 27.6996 160.38C25.5996 145.04 24.7596 129.27 24.7596 113.93C24.7596 81.77 24.7596 49.61 24.1296 17.45C16.9896 25.85 12.3596 35.73 5.21959 43.72Z" fill="#93AABB"/>
<path d="M71.6378 73.7801L62.3878 68.9501L61.1278 67.9001C60.4978 58.8601 61.1278 50.2401 61.9678 41.2001C62.8078 32.3701 63.2278 23.7501 64.2778 13.8801C86.1378 7.15008 108.838 4.00008 131.748 3.58008C133.218 7.15008 132.588 9.68008 130.698 12.4101C112.618 16.4001 93.9178 17.6601 75.4178 22.5001C74.5778 33.4301 73.9478 44.1501 72.8978 55.9201C79.4178 51.7201 86.7678 47.3001 93.7078 45.6201C110.518 41.2101 121.248 53.4001 125.868 71.6801C131.128 92.9101 129.228 109.3 121.878 127.59C116.628 140.83 109.478 153.02 95.3978 158.49C85.3078 162.69 75.2178 162.9 65.9678 155.97C56.5078 148.82 53.3578 139.36 54.4078 128.01C59.4478 126.54 64.7078 122.76 65.3378 129.69C66.5978 137.05 66.8078 144.4 74.5878 147.77C82.5778 151.13 88.2478 150.5 94.5578 145.67C104.858 137.47 109.478 125.28 112.848 113.09C117.258 96.9101 116.418 82.8201 111.378 67.0601C109.068 60.1201 102.968 56.9701 96.8778 58.6501C89.0978 60.5401 83.0078 65.5901 76.6978 70.0001C74.9978 71.0401 73.3178 72.1001 71.6378 73.7801Z" fill="#93AABB"/>
<path d="M174.28 146.401C128.92 162.521 85.4102 184.241 40.4903 203.351C38.7803 199.951 36.5303 198.091 36.7403 194.431C80.4502 172.641 124.86 152.161 171.15 136.131C174.08 140.421 174.59 141.801 174.28 146.401Z" fill="#93AABB"/>
</g>
<defs>
<clipPath id="clip0">
<rect width="174.36" height="203.35" fill="white"/>
</clipPath>
</defs>
</svg>
