<svg width="169" height="204" viewBox="0 0 169 204" fill="none" xmlns="http://www.w3.org/2000/svg">
<g clip-path="url(#clip0)">
<path d="M5.21959 43.72C-0.450415 42.46 -0.880414 39.73 1.01959 35.73C6.89959 23.96 14.2496 13.24 21.8196 2.52C24.3396 -0.84 29.3896 0.42 33.7996 0L35.0596 26.06C36.7396 54.65 35.6896 83.65 37.5796 112.45C38.4196 126.53 38.4196 141.04 40.7296 155.33C41.9896 162.27 34.6296 162.69 30.6396 165C28.1196 163.74 27.9096 162.27 27.6996 160.38C25.5996 145.04 24.7596 129.27 24.7596 113.93C24.7596 81.77 24.7596 49.61 24.1296 17.45C16.9896 25.85 12.3596 35.73 5.21959 43.72Z" fill="#93AABB"/>
<path d="M109.678 122.121C111.778 125.271 112.618 128.641 112.198 132.841C97.9084 139.781 83.6084 146.921 68.6884 153.441C60.6984 157.221 55.2384 151.551 56.2884 141.461C57.7584 123.171 63.4384 105.521 67.4284 87.651C72.2584 66.631 77.5184 45.821 83.1884 24.591C83.6084 22.701 84.4484 21.021 83.6084 17.861C74.7884 26.271 69.3284 37.201 62.5984 47.081C59.8684 46.451 57.1384 46.871 54.3984 44.561C58.8084 28.591 66.1684 15.131 78.9884 6.94097C88.2384 1.05097 95.3784 6.73097 95.5984 19.761C95.8084 35.311 91.3884 49.821 87.3984 64.321C81.2984 87.021 73.9484 109.721 70.9984 133.261L70.1584 139.561C84.0384 133.681 96.4384 126.541 109.678 122.121Z" fill="#93AABB"/>
<path d="M168.819 146.401C123.459 162.521 79.9493 184.241 35.0293 203.351C33.3193 199.951 31.0693 198.091 31.2793 194.431C74.9893 172.641 119.399 152.161 165.689 136.131C168.619 140.421 169.129 141.801 168.819 146.401Z" fill="#93AABB"/>
</g>
<defs>
<clipPath id="clip0">
<rect width="168.9" height="203.35" fill="white"/>
</clipPath>
</defs>
</svg>
