<svg width="178" height="204" viewBox="0 0 178 204" fill="none" xmlns="http://www.w3.org/2000/svg">
<g clip-path="url(#clip0)">
<path d="M5.21989 43.72C-0.460108 42.46 -0.880108 39.73 1.01989 35.73C6.89989 23.96 14.2499 13.24 21.8199 2.52C24.3399 -0.84 29.3899 0.42 33.7999 0L35.0599 26.06C36.7399 54.65 35.6899 83.65 37.5799 112.45C38.4199 126.53 38.4199 141.04 40.7299 155.33C41.9899 162.27 34.6299 162.69 30.6399 165C28.1199 163.74 27.9099 162.27 27.6999 160.38C25.5999 145.04 24.7599 129.27 24.7599 113.93C24.7599 81.77 24.7599 49.61 24.1299 17.45C16.9899 25.85 12.3599 35.73 5.21989 43.72Z" fill="#93AABB"/>
<path d="M87.1898 62.2196C93.9198 61.7996 99.5898 60.3296 105.48 60.5396C114.94 60.9596 125.87 65.9996 127.76 73.5696C135.54 101.1 131.33 126.54 109.26 148.61C100.01 157.86 85.7198 165.43 72.0598 162.9C61.9698 161.01 53.5598 151.13 52.5098 141.25C54.6098 139.15 60.0798 140.2 62.5998 138.94C64.4898 145.25 66.5898 150.5 74.7898 151.76C83.6198 152.81 92.4498 148.61 97.9098 143.14C115.36 125.69 117.88 106.15 115.15 83.8696C113.89 73.1496 108.63 69.3696 96.2298 71.6796C89.9198 72.9396 83.8298 75.2496 77.5198 76.2996C72.8998 77.1396 68.2698 78.1896 64.4898 73.1496C77.3098 53.3896 89.0798 33.2096 101.48 11.1396C94.9598 13.8696 89.9198 16.1796 85.2898 18.0796C78.5598 20.8096 72.4698 23.1196 66.5798 26.0696C60.8998 28.7996 57.9598 27.3296 55.6498 21.8696C70.5698 13.0396 87.1798 6.52961 103.78 0.849609C115.97 9.88961 116.18 10.9396 110.93 21.2396C105.06 32.9996 98.9598 44.3496 91.5998 55.4896C90.1298 57.3796 88.8698 59.2696 87.1898 62.2196Z" fill="#93AABB"/>
<path d="M177.011 146.401C131.651 162.521 88.1407 184.241 43.2207 203.351C41.5107 199.951 39.2607 198.091 39.4707 194.431C83.1807 172.641 127.591 152.161 173.881 136.131C176.811 140.421 177.331 141.801 177.011 146.401Z" fill="#93AABB"/>
</g>
<defs>
<clipPath id="clip0">
<rect width="177.09" height="203.35" fill="white"/>
</clipPath>
</defs>
</svg>
