<svg width="192" height="200" viewBox="0 0 192 200" fill="none" xmlns="http://www.w3.org/2000/svg">
<g clip-path="url(#clip0)">
<path d="M67.0617 75.5003C66.4317 95.0503 62.8617 113.12 53.4017 129.94C47.5217 141.08 34.2717 148.86 25.2317 146.33C17.8717 144.44 13.8817 138.55 10.5217 132.46C3.16165 119.22 1.48165 104.5 0.641654 89.5803C-0.618346 72.1303 -0.408346 54.2703 4.84165 37.2403C6.10165 33.8803 7.15165 30.7203 8.62165 27.7803C18.5017 6.97031 39.3117 5.5003 52.1317 24.6303C62.8617 40.1903 66.4317 57.6303 67.0617 75.5003ZM13.2517 80.9603C12.8317 86.8503 13.6717 94.4103 14.3017 101.98C15.5617 111.65 17.6617 121.11 23.1317 129.09C27.7517 136.03 33.0117 136.45 38.8917 130.56C43.5117 126.57 46.0417 121.1 47.9317 115.01C52.7617 98.8303 54.6617 81.8003 54.6617 64.7703C54.6617 52.1603 50.2517 40.6003 42.4717 30.5103C34.9017 20.6303 23.9717 22.3103 19.1417 34.0803C18.3017 35.9703 17.8817 38.0703 17.4617 40.1803C14.3017 53.0103 13.2517 66.0403 13.2517 80.9603Z" fill="#93AABB"/>
<path d="M120.66 64.5697C127.6 73.3997 134.32 81.5997 138.53 91.0497C145.26 107.23 146.94 123.21 138.74 139.39C132.64 151.79 122.34 158.73 108.26 157.68C96.49 157.26 85.14 146.96 81.36 133.72C75.26 113.75 80.73 95.6797 92.08 79.0697C96.28 73.1897 100.91 68.3497 106.37 63.5197C99.64 54.8997 93.34 46.0697 91.03 35.3497C87.25 17.2697 98.39 0.879688 114.99 0.039688C128.44 -0.800312 140.42 11.1797 140.63 25.8897C141.05 40.8097 133.9 52.1597 123.81 62.0397C123.18 62.8897 121.92 63.3097 120.66 64.5697ZM112.46 71.5097C110.78 73.6097 109.1 75.9197 107.21 77.8197C92.29 93.5797 88.29 120.07 98.17 138.35C104.06 148.86 112.88 150.33 121.92 142.13C124.02 140.03 125.49 137.51 126.54 134.77C134.96 111.23 128.23 90.8397 112.46 71.5097ZM115.41 57.4197C125.71 45.6497 133.28 33.8797 128.86 18.3197C127.18 13.0697 125.5 7.59969 118.77 6.96969C112.25 6.54969 108.47 10.9597 105.53 16.2197C104.27 18.1097 103.64 20.4197 103.22 22.5297C99.85 36.3997 108.05 46.2797 115.41 57.4197Z" fill="#93AABB"/>
<path d="M191.362 142.87C146.002 158.99 102.492 180.71 57.5723 199.82C55.8623 196.42 53.6123 194.56 53.8223 190.9C97.5323 169.11 141.942 148.63 188.232 132.6C191.162 136.89 191.672 138.27 191.362 142.87Z" fill="#93AABB"/>
</g>
<defs>
<clipPath id="clip0">
<rect width="191.44" height="199.81" fill="white"/>
</clipPath>
</defs>
</svg>
