<svg width="238" height="202" viewBox="0 0 238 202" fill="none" xmlns="http://www.w3.org/2000/svg">
<g clip-path="url(#clip0)">
<path d="M80.6985 150.72C73.3385 157.03 68.5085 155.34 66.1985 147.15L57.5785 115.83C44.1285 118.35 31.5185 122.77 18.2685 125.92C15.7485 133.49 15.3285 141.47 13.4385 149.04C11.9685 156.19 9.02855 158.5 3.13855 157.03C0.408546 156.4 -0.431454 155.98 0.198546 153.04C11.7585 107.22 19.5385 60.7696 33.1985 15.3696C34.4585 11.5896 35.5085 8.21956 36.9785 4.64956C37.8185 2.33956 39.2885 0.239557 41.1785 0.0295571C42.4385 -0.180443 44.1185 1.49956 44.7485 3.17956C48.5285 11.5896 49.7885 20.2096 51.6885 29.0296C60.0985 65.5996 66.1885 102.18 76.9085 138.33C78.3885 142.53 79.8585 146.31 80.6985 150.72ZM40.5585 31.7596C31.9385 59.0796 25.2185 86.6196 19.9585 114.57C32.1485 111.63 43.7085 108.68 55.4785 105.74C50.4285 80.9396 45.3885 56.3496 40.5585 31.7596Z" fill="#93AABB"/>
<path d="M84.4804 11.7898C84.2704 7.58975 85.7404 5.69975 89.7304 5.26975C105.28 3.79975 120.42 3.16975 135.13 10.0998C155.31 19.9798 164.35 37.4198 167.92 58.4398C173.8 95.6398 159.3 124.23 128.82 145.25C121.25 150.5 112.85 153.66 103.81 155.97C98.7704 157.44 96.8704 155.97 96.0304 150.08C93.5104 132.63 92.2504 114.56 90.3504 96.8998C88.2504 72.5198 86.9904 48.5598 85.3104 24.1698C85.1104 23.1398 84.9004 14.9398 84.4804 11.7898ZM109.08 141.9C112.86 140.43 115.39 139.38 117.91 138.12C134.52 129.29 146.29 115.63 152.8 98.1798C158.47 81.9998 159.95 65.1798 154.06 48.9998C146.7 27.7698 129.47 18.0998 108.66 14.9498C105.3 14.5298 101.51 14.1098 97.5204 15.5798C99.2004 57.3998 101.72 99.4398 109.08 141.9Z" fill="#93AABB"/>
<path d="M237.577 144.319C192.217 160.439 148.707 182.159 103.787 201.269C102.077 197.869 99.8271 196.009 100.037 192.349C143.747 170.559 188.157 150.079 234.447 134.049C237.377 138.339 237.887 139.719 237.577 144.319Z" fill="#93AABB"/>
</g>
<defs>
<clipPath id="clip0">
<rect width="237.66" height="201.26" fill="white"/>
</clipPath>
</defs>
</svg>
