<svg width="157" height="204" viewBox="0 0 157 204" fill="none" xmlns="http://www.w3.org/2000/svg">
<g clip-path="url(#clip0)">
<path d="M5.21959 43.72C-0.450415 42.46 -0.880414 39.73 1.01959 35.73C6.89959 23.96 14.2496 13.24 21.8196 2.52C24.3396 -0.84 29.3896 0.42 33.7996 0L35.0596 26.06C36.7396 54.64 35.6896 83.65 37.5796 112.45C38.4196 126.53 38.4196 141.04 40.7296 155.33C41.9896 162.27 34.6296 162.69 30.6396 165C28.1196 163.74 27.9096 162.27 27.6996 160.38C25.5996 145.04 24.7596 129.27 24.7596 113.93C24.7596 81.77 24.7596 49.61 24.1296 17.45C16.9896 25.85 12.3596 35.73 5.21959 43.72Z" fill="#93AABB"/>
<path d="M86.1384 18.7093C74.9984 18.9193 64.9084 22.4893 54.8184 24.3793C52.2984 21.6493 52.9284 18.9193 53.3484 15.7593C67.0084 12.1893 80.4584 9.4493 94.7584 9.0293C99.3784 9.0293 100.648 11.5493 98.7484 16.8093L86.1384 52.1293C77.7284 77.1393 74.5784 103.419 70.1684 129.269C68.4884 137.889 67.4384 146.509 65.9684 155.329C62.8184 155.959 59.6584 156.379 55.6684 154.069C57.7684 130.949 60.7084 108.039 65.3384 85.1293C69.7484 62.2193 77.9384 40.7793 86.1384 18.7093Z" fill="#93AABB"/>
<path d="M156.21 146.401C110.85 162.521 67.3399 184.241 22.4199 203.351C20.7099 199.951 18.4599 198.091 18.6699 194.431C62.3799 172.641 106.79 152.161 153.08 136.131C156.01 140.421 156.52 141.801 156.21 146.401Z" fill="#93AABB"/>
</g>
<defs>
<clipPath id="clip0">
<rect width="156.29" height="203.35" fill="white"/>
</clipPath>
</defs>
</svg>
