<svg width="238" height="205" viewBox="0 0 238 205" fill="none" xmlns="http://www.w3.org/2000/svg">
<g clip-path="url(#clip0)">
<path d="M67.0617 79.8792C66.4317 99.4292 62.8617 117.499 53.4017 134.319C47.5117 145.459 34.2717 153.239 25.2317 150.709C17.8717 148.819 13.8817 142.929 10.5217 136.839C3.16165 123.599 1.48165 108.879 0.641654 93.9592C-0.618346 76.5092 -0.408346 58.6492 4.84165 41.6192C6.10165 38.2592 7.15165 35.0992 8.62165 32.1592C18.5017 11.3492 39.3117 9.87921 52.1317 29.0092C62.8617 44.5692 66.4317 62.0192 67.0617 79.8792ZM13.2517 85.3492C12.8317 91.2392 13.6717 98.7992 14.3017 106.369C15.5617 116.039 17.6617 125.499 23.1317 133.479C27.7517 140.419 33.0117 140.839 38.8917 134.949C43.5117 130.959 46.0417 125.489 47.9317 119.399C52.7617 103.219 54.6617 86.1892 54.6617 69.1592C54.6617 56.5492 50.2517 44.9892 42.4717 34.8992C34.9017 25.0192 23.9717 26.6992 19.1417 38.4692C18.3017 40.3592 17.8817 42.4592 17.4617 44.5692C14.3017 57.3892 13.2517 70.4192 13.2517 85.3492Z" fill="#93AABB"/>
<path d="M155.551 29.2301C152.611 30.0701 147.351 30.0701 145.251 28.6001C146.091 18.7201 145.671 12.2101 141.891 10.5201C133.901 7.37007 120.451 25.6501 112.041 39.3201C98.5913 61.6001 95.0213 81.7701 95.0213 108.47C97.9613 102.58 99.8513 98.5901 102.171 94.6001C107.421 85.7701 114.361 76.5201 125.081 73.7901C135.591 70.8501 146.101 76.5201 149.251 85.1401C154.931 100.9 154.931 135.59 134.331 159.76C123.401 172.79 107.221 170.9 96.7113 157.87C87.2513 146.31 84.3113 133.28 83.0513 119.62C80.5313 90.8201 84.5213 61.8201 99.2313 35.3301C105.111 24.6101 112.051 14.3101 122.771 6.53007C136.221 -2.92993 151.361 -2.92993 154.931 11.9901C156.181 16.8301 156.391 23.1301 155.551 29.2301ZM102.161 131.17C102.161 145.46 105.941 156.81 114.561 158.28C123.391 159.54 128.851 153.66 132.011 147.35C141.471 129.27 144.201 111.62 138.321 91.6501C136.011 84.0801 129.281 80.3001 122.561 85.7701C111.411 94.6001 102.161 113.72 102.161 131.17Z" fill="#93AABB"/>
<path d="M237.394 147.25C192.034 163.37 148.524 185.09 103.604 204.2C101.894 200.8 99.6435 198.94 99.8535 195.28C143.564 173.49 187.974 153.01 234.264 136.98C237.194 141.27 237.704 142.65 237.394 147.25Z" fill="#93AABB"/>
</g>
<defs>
<clipPath id="clip0">
<rect width="237.47" height="204.2" fill="white"/>
</clipPath>
</defs>
</svg>
