<svg width="177" height="204" viewBox="0 0 177 204" fill="none" xmlns="http://www.w3.org/2000/svg">
<g clip-path="url(#clip0)">
<path d="M5.22185 43.72C-0.458155 42.46 -0.878155 39.73 1.02185 35.73C6.90185 23.96 14.2518 13.24 21.8218 2.52C24.3418 -0.84 29.3918 0.42 33.8018 0L35.0618 26.06C36.7418 54.65 35.6918 83.65 37.5818 112.45C38.4218 126.53 38.4218 141.04 40.7318 155.33C41.9918 162.27 34.6318 162.69 30.6418 165C28.1218 163.74 27.9118 162.27 27.7018 160.38C25.6018 145.04 24.7618 129.27 24.7618 113.93C24.7618 81.77 24.7618 49.61 24.1318 17.45C16.9918 25.85 12.3618 35.73 5.22185 43.72Z" fill="#93AABB"/>
<path d="M58.3937 43.72C52.7137 42.46 52.2937 39.73 54.1937 35.73C60.0737 23.96 67.4337 13.24 75.0037 2.52C77.5237 -0.84 82.5737 0.42 86.9837 0L88.2437 26.06C89.9237 54.65 88.8737 83.65 90.7637 112.45C91.6037 126.53 91.6037 141.04 93.9137 155.33C95.1737 162.27 87.8137 162.69 83.8237 165C81.3037 163.74 81.0937 162.27 80.8837 160.38C78.7837 145.04 77.9437 129.27 77.9437 113.93C77.9437 81.77 77.9437 49.61 77.3137 17.45C70.1637 25.85 65.5437 35.73 58.3937 43.72Z" fill="#93AABB"/>
<path d="M176.171 146.401C130.811 162.521 87.3009 184.241 42.3809 203.351C40.6709 199.951 38.4209 198.091 38.6309 194.431C82.3409 172.641 126.751 152.161 173.041 136.131C175.971 140.421 176.481 141.801 176.171 146.401Z" fill="#93AABB"/>
</g>
<defs>
<clipPath id="clip0">
<rect width="176.25" height="203.35" fill="white"/>
</clipPath>
</defs>
</svg>
