<svg width="168" height="204" viewBox="0 0 168 204" fill="none" xmlns="http://www.w3.org/2000/svg">
<g clip-path="url(#clip0)">
<path d="M5.22185 43.72C-0.458155 42.46 -0.878155 39.73 1.02185 35.73C6.90185 23.96 14.2518 13.24 21.8218 2.52C24.3418 -0.84 29.3918 0.42 33.8018 0L35.0618 26.06C36.7418 54.64 35.6918 83.65 37.5818 112.45C38.4218 126.53 38.4218 141.04 40.7318 155.33C41.9918 162.27 34.6318 162.69 30.6418 165C28.1218 163.74 27.9118 162.27 27.7018 160.38C25.6018 145.04 24.7618 129.27 24.7618 113.93C24.7618 81.77 24.7618 49.61 24.1318 17.45C16.9918 25.85 12.3618 35.73 5.22185 43.72Z" fill="#93AABB"/>
<path d="M96.6522 68.1009C103.592 76.9309 110.312 85.1309 114.522 94.5809C121.252 110.761 122.932 126.741 114.732 142.921C108.632 155.321 98.3422 162.261 84.2522 161.211C72.4822 160.791 61.1322 150.491 57.3522 137.251C51.2522 117.281 56.7222 99.2109 68.0722 82.6009C72.2722 76.7109 76.9022 71.8809 82.3622 67.0509C75.6322 58.4309 69.3322 49.6009 67.0222 38.8809C63.2322 20.8109 74.3722 4.41094 90.9822 3.57094C104.432 2.73094 116.412 14.7109 116.622 29.4209C117.042 44.3409 109.892 55.6909 99.8022 65.5709C99.1722 66.4209 97.9122 66.8409 96.6522 68.1009ZM88.4522 75.0409C86.7722 77.1409 85.0922 79.4509 83.2022 81.3509C68.2822 97.1109 64.2822 123.601 74.1622 141.891C80.0422 152.401 88.8722 153.871 97.9122 145.671C100.012 143.571 101.482 141.051 102.532 138.311C110.942 114.761 104.222 94.3809 88.4522 75.0409ZM91.3922 60.9609C101.692 49.1909 109.262 37.4209 104.842 21.8709C103.162 16.6209 101.482 11.1509 94.7522 10.5209C88.2322 10.1009 84.4522 14.5109 81.5122 19.7709C80.2522 21.6609 79.6222 23.9709 79.2022 26.0809C75.8422 39.9409 84.0422 49.8209 91.3922 60.9609Z" fill="#93AABB"/>
<path d="M167.351 146.401C121.991 162.521 78.4806 184.241 33.5606 203.351C31.8506 199.951 29.6006 198.091 29.8106 194.431C73.5206 172.641 117.931 152.161 164.221 136.131C167.151 140.421 167.661 141.801 167.351 146.401Z" fill="#93AABB"/>
</g>
<defs>
<clipPath id="clip0">
<rect width="167.43" height="203.35" fill="white"/>
</clipPath>
</defs>
</svg>
