<svg width="232" height="189" viewBox="0 0 232 189" fill="none" xmlns="http://www.w3.org/2000/svg">
<g clip-path="url(#clip0)">
<path d="M67.0617 64.3206C66.4317 83.8706 62.8617 101.941 53.4017 118.761C47.5117 129.901 34.2717 137.681 25.2317 135.161C17.8717 133.271 13.8817 127.381 10.5217 121.291C3.16165 108.031 1.48165 93.3206 0.641654 78.4006C-0.618346 60.9506 -0.408346 43.0906 4.84165 26.0606C6.10165 22.7006 7.15165 19.5406 8.62165 16.6006C18.5017 -4.20938 39.3117 -5.67938 52.1317 13.4506C62.8617 29.0006 66.4317 46.4506 67.0617 64.3206ZM13.2517 69.7806C12.8317 75.6606 13.6717 83.2306 14.3017 90.8006C15.5617 100.471 17.6617 109.931 23.1317 117.911C27.7517 124.851 33.0117 125.271 38.8917 119.381C43.5117 115.391 46.0417 109.921 47.9317 103.831C52.7617 87.6506 54.6617 70.6206 54.6617 53.5906C54.6617 40.9806 50.2517 29.4206 42.4717 19.3306C34.9017 9.45062 23.9717 11.1306 19.1417 22.9006C18.3017 24.7906 17.8817 26.8906 17.4617 29.0006C14.3017 41.8306 13.2517 54.8606 13.2517 69.7806Z" fill="#93AABB"/>
<path d="M149.882 64.3204C149.252 83.8704 145.682 101.94 136.222 118.76C130.332 129.9 117.092 137.68 108.052 135.16C100.692 133.27 96.702 127.38 93.342 121.29C85.982 108.05 84.302 93.3304 83.462 78.4104C82.202 60.9604 82.412 43.1004 87.662 26.0704C88.922 22.7104 89.972 19.5504 91.442 16.6104C101.322 -4.19962 122.132 -5.66962 134.952 13.4604C145.672 29.0004 149.252 46.4504 149.882 64.3204ZM96.072 69.7804C95.652 75.6604 96.492 83.2304 97.122 90.8004C98.382 100.47 100.482 109.93 105.952 117.91C110.572 124.85 115.832 125.27 121.712 119.38C126.332 115.39 128.862 109.92 130.752 103.83C135.582 87.6504 137.482 70.6204 137.482 53.5904C137.482 40.9804 133.072 29.4204 125.292 19.3304C117.722 9.45038 106.792 11.1304 101.962 22.9004C101.122 24.7904 100.702 26.8904 100.282 29.0004C97.122 41.8304 96.072 54.8604 96.072 69.7804Z" fill="#93AABB"/>
<path d="M231.292 131.68C185.932 147.8 142.422 169.52 97.502 188.63C95.792 185.23 93.542 183.37 93.752 179.71C137.462 157.92 181.872 137.44 228.162 121.41C231.092 125.7 231.612 127.08 231.292 131.68Z" fill="#93AABB"/>
</g>
<defs>
<clipPath id="clip0">
<rect width="231.37" height="188.63" fill="white"/>
</clipPath>
</defs>
</svg>
