<svg width="176" height="199" viewBox="0 0 176 199" fill="none" xmlns="http://www.w3.org/2000/svg">
<g clip-path="url(#clip0)">
<path d="M55.28 117.509C57.38 120.659 58.22 124.029 57.8 128.229C43.51 135.169 29.21 142.309 14.29 148.829C6.3 152.609 0.84 146.939 1.89 136.849C3.36 118.559 9.04 100.909 13.03 83.0395C17.86 62.0195 23.12 41.2095 28.79 19.9795C29.21 18.0895 30.05 16.4095 29.21 13.2495C20.39 21.6595 14.92 32.5895 8.2 42.4695C5.47 41.8395 2.74 42.2595 0 39.9495C4.41 23.9695 11.77 10.5195 24.59 2.31948C33.84 -3.56052 40.98 2.10948 41.2 15.1395C41.41 30.6995 36.99 45.1995 33 59.6995C26.9 82.3995 19.55 105.099 16.6 128.639L15.76 134.949C29.64 129.069 42.04 121.919 55.28 117.509Z" fill="#93AABB"/>
<path d="M133.05 74.42C132.42 93.97 128.85 112.04 119.39 128.86C113.5 140 100.26 147.78 91.2199 145.26C83.8599 143.37 79.8699 137.48 76.5099 131.39C69.1499 118.15 67.4699 103.43 66.6299 88.51C65.3699 71.06 65.5799 53.2 70.8299 36.17C72.0899 32.81 73.1399 29.65 74.6099 26.71C84.4899 5.89999 105.3 4.42999 118.12 23.56C128.84 39.1 132.42 56.55 133.05 74.42ZM79.2399 79.88C78.8199 85.76 79.6599 93.33 80.2899 100.9C81.5499 110.57 83.6499 120.03 89.1199 128.01C93.7399 134.95 98.9999 135.37 104.88 129.48C109.5 125.49 112.03 120.02 113.92 113.93C118.75 97.75 120.65 80.72 120.65 63.69C120.65 51.08 116.24 39.52 108.46 29.43C100.89 19.55 89.9599 21.23 85.1299 33C84.2899 34.89 83.8699 36.99 83.4499 39.1C80.2899 51.93 79.2399 64.96 79.2399 79.88Z" fill="#93AABB"/>
<path d="M175.581 141.79C130.221 157.91 86.711 179.63 41.791 198.74C40.081 195.34 37.831 193.48 38.041 189.82C81.751 168.03 126.161 147.55 172.451 131.52C175.381 135.81 175.891 137.19 175.581 141.79Z" fill="#93AABB"/>
</g>
<defs>
<clipPath id="clip0">
<rect width="175.66" height="198.73" fill="white"/>
</clipPath>
</defs>
</svg>
