<svg width="197" height="199" viewBox="0 0 197 199" fill="none" xmlns="http://www.w3.org/2000/svg">
<g clip-path="url(#clip0)">
<path d="M67.0617 74.42C66.4317 93.97 62.8617 112.04 53.4017 128.86C47.5117 140 34.2717 147.78 25.2317 145.26C17.8717 143.37 13.8817 137.48 10.5217 131.39C3.16165 118.15 1.48165 103.43 0.641654 88.51C-0.618346 71.06 -0.408346 53.2 4.84165 36.17C6.10165 32.81 7.15165 29.65 8.62165 26.71C18.5017 5.89999 39.3117 4.42999 52.1317 23.56C62.8617 39.1 66.4317 56.55 67.0617 74.42ZM13.2517 79.88C12.8317 85.76 13.6717 93.33 14.3017 100.9C15.5617 110.57 17.6617 120.03 23.1317 128.01C27.7517 134.95 33.0117 135.37 38.8917 129.48C43.5117 125.49 46.0417 120.02 47.9317 113.93C52.7617 97.75 54.6617 80.72 54.6617 63.69C54.6617 51.08 50.2517 39.52 42.4717 29.43C34.9017 19.55 23.9717 21.23 19.1417 33C18.3017 34.89 17.8817 36.99 17.4617 39.1C14.3017 51.93 13.2517 64.96 13.2517 79.88Z" fill="#93AABB"/>
<path d="M137.063 117.509C139.163 120.659 140.003 124.029 139.583 128.229C125.293 135.169 110.993 142.309 96.0734 148.829C88.0834 152.609 82.6234 146.939 83.6734 136.849C85.1434 118.559 90.8234 100.909 94.8134 83.0392C99.6434 62.0192 104.903 41.2092 110.573 19.9792C110.993 18.0892 111.833 16.4092 110.993 13.2492C102.163 21.6592 96.7034 32.5892 89.9734 42.4692C87.2434 41.8392 84.5134 42.2592 81.7734 39.9492C86.1834 23.9792 93.5434 10.5192 106.363 2.32924C115.613 -3.55076 122.753 2.11924 122.963 15.1492C123.173 30.6992 118.763 45.2092 114.763 59.7092C108.663 82.4092 101.313 105.109 98.3634 128.649L97.5234 134.959C111.413 129.069 123.813 121.919 137.063 117.509Z" fill="#93AABB"/>
<path d="M196.19 141.79C150.83 157.91 107.32 179.63 62.4004 198.74C60.6904 195.34 58.4404 193.48 58.6504 189.82C102.36 168.03 146.77 147.55 193.06 131.52C195.99 135.81 196.51 137.19 196.19 141.79Z" fill="#93AABB"/>
</g>
<defs>
<clipPath id="clip0">
<rect width="196.27" height="198.73" fill="white"/>
</clipPath>
</defs>
</svg>
