<svg width="166" height="204" viewBox="0 0 166 204" fill="none" xmlns="http://www.w3.org/2000/svg">
<g clip-path="url(#clip0)">
<path d="M5.22085 43.72C-0.459147 42.46 -0.879147 39.73 1.01085 35.73C6.90085 23.96 14.2509 13.24 21.8209 2.52C24.3409 -0.84 29.3909 0.42 33.8009 0L35.0609 26.06C36.7409 54.65 35.6909 83.65 37.5809 112.45C38.4209 126.53 38.4209 141.04 40.7309 155.33C41.9909 162.27 34.6309 162.69 30.6409 165C28.1209 163.74 27.9109 162.27 27.7009 160.38C25.6009 145.04 24.7609 129.27 24.7609 113.93C24.7609 81.77 24.7609 49.61 24.1309 17.45C16.9909 25.85 12.3609 35.73 5.22085 43.72Z" fill="#93AABB"/>
<path d="M122.921 79.0304C122.291 98.5804 118.721 116.65 109.261 133.47C103.371 144.61 90.131 152.39 81.091 149.86C73.731 147.97 69.741 142.08 66.381 135.99C59.021 122.75 57.341 108.03 56.501 93.1104C55.241 75.6604 55.451 57.8004 60.701 40.7704C61.961 37.4104 63.011 34.2504 64.481 31.3104C74.371 10.5104 95.181 9.04041 108.001 28.1704C118.721 43.7204 122.291 61.1704 122.921 79.0304ZM69.111 84.5004C68.691 90.3904 69.531 97.9504 70.161 105.52C71.421 115.19 73.521 124.65 78.991 132.63C83.611 139.57 88.871 139.99 94.751 134.1C99.371 130.11 101.901 124.64 103.791 118.55C108.621 102.37 110.521 85.3404 110.521 68.3104C110.521 55.7004 106.111 44.1404 98.331 34.0504C90.761 24.1704 79.831 25.8504 75.001 37.6204C74.161 39.5104 73.741 41.6104 73.321 43.7204C70.171 56.5404 69.111 69.5704 69.111 84.5004Z" fill="#93AABB"/>
<path d="M165.452 146.401C120.092 162.521 76.5821 184.241 31.6621 203.351C29.9521 199.951 27.7021 198.091 27.9121 194.431C71.6221 172.641 116.032 152.161 162.322 136.131C165.252 140.421 165.772 141.801 165.452 146.401Z" fill="#93AABB"/>
</g>
<defs>
<clipPath id="clip0">
<rect width="165.53" height="203.35" fill="white"/>
</clipPath>
</defs>
</svg>
