<svg width="197" height="200" viewBox="0 0 197 200" fill="none" xmlns="http://www.w3.org/2000/svg">
<g clip-path="url(#clip0)">
<path d="M67.0581 75.4593C66.4281 95.0093 62.8581 113.079 53.3981 129.899C47.5181 141.039 34.2681 148.819 25.2381 146.299C17.8781 144.409 13.8881 138.519 10.5281 132.429C3.16809 119.189 1.48809 104.469 0.648087 89.5493C-0.621913 72.0993 -0.411913 54.2293 4.84809 37.1993C6.10809 33.8393 7.15809 30.6793 8.62809 27.7393C18.5081 6.92929 39.3181 5.45929 52.1381 24.5893C62.8581 40.1493 66.4281 57.5893 67.0581 75.4593ZM13.2481 80.9193C12.8281 86.7993 13.6681 94.3693 14.2981 101.939C15.5581 111.609 17.6581 121.069 23.1281 129.049C27.7481 135.989 33.0081 136.409 38.8881 130.519C43.5081 126.529 46.0381 121.059 47.9281 114.969C52.7581 98.7893 54.6581 81.7593 54.6581 64.7293C54.6581 52.1193 50.2481 40.5593 42.4681 30.4693C34.8981 20.5893 23.9681 22.2693 19.1381 34.0393C18.2981 35.9293 17.8781 38.0293 17.4581 40.1393C14.2981 52.9693 13.2481 65.9993 13.2481 80.9193Z" fill="#93AABB"/>
<path d="M93.5479 70.1998L84.2979 65.3698L83.0379 64.3198C82.4079 55.2798 83.0379 46.6598 83.8779 37.6298C84.7179 28.7998 85.1379 20.1798 86.1879 10.3098C108.048 3.57977 130.748 0.429766 153.658 0.00976562C155.128 3.57977 154.498 6.10977 152.608 8.83977C134.528 12.8298 115.828 14.0898 97.3279 18.9298C96.4879 29.8598 95.8579 40.5798 94.8079 52.3498C101.328 48.1498 108.678 43.7298 115.618 42.0498C132.428 37.6398 143.158 49.8298 147.778 68.1098C153.038 89.3398 151.138 105.73 143.788 124.02C138.538 137.26 131.388 149.45 117.308 154.92C107.218 159.12 97.1279 159.33 87.8779 152.4C78.4179 145.25 75.2679 135.79 76.3179 124.44C81.3579 122.97 86.6179 119.19 87.2479 126.12C88.5079 133.48 88.7179 140.83 96.4979 144.2C104.488 147.56 110.158 146.93 116.468 142.1C126.768 133.9 131.388 121.71 134.758 109.52C139.168 93.3398 138.328 79.2498 133.288 63.4898C130.978 56.5498 124.878 53.3998 118.788 55.0798C111.008 56.9698 104.918 62.0198 98.6079 66.4298C96.9079 67.4698 95.2279 68.5198 93.5479 70.1998Z" fill="#93AABB"/>
<path d="M196.187 142.831C150.827 158.951 107.316 180.671 62.3965 199.781C60.6865 196.381 58.4365 194.521 58.6465 190.861C102.356 169.071 146.767 148.591 193.057 132.561C195.987 136.851 196.507 138.231 196.187 142.831Z" fill="#93AABB"/>
</g>
<defs>
<clipPath id="clip0">
<rect width="196.27" height="199.77" fill="white"/>
</clipPath>
</defs>
</svg>
