<svg width="195" height="202" viewBox="0 0 195 202" fill="none" xmlns="http://www.w3.org/2000/svg">
<g clip-path="url(#clip0)">
<path d="M67.0617 77.5296C66.4317 97.0796 62.8617 115.15 53.4017 131.97C47.5217 143.11 34.2717 150.89 25.2317 148.36C17.8717 146.47 13.8817 140.58 10.5217 134.49C3.16165 121.25 1.48165 106.53 0.641654 91.6096C-0.618346 74.1596 -0.408346 56.2996 4.84165 39.2696C6.10165 35.9096 7.15165 32.7496 8.62165 29.8096C18.5017 8.9996 39.3117 7.5296 52.1317 26.6596C62.8617 42.2096 66.4317 59.6596 67.0617 77.5296ZM13.2517 82.9896C12.8317 88.8796 13.6717 96.4396 14.3017 104.01C15.5617 113.68 17.6617 123.14 23.1317 131.12C27.7517 138.06 33.0117 138.48 38.8917 132.59C43.5117 128.6 46.0417 123.13 47.9317 117.04C52.7617 100.86 54.6617 83.8296 54.6617 66.7996C54.6617 54.1896 50.2517 42.6296 42.4717 32.5396C34.9017 22.6596 23.9717 24.3396 19.1417 36.1096C18.3017 37.9996 17.8817 40.0996 17.4617 42.2096C14.3017 55.0396 13.2517 68.0696 13.2517 82.9896Z" fill="#93AABB"/>
<path d="M75.8922 123.35C78.6222 118.94 85.5622 118.73 88.7122 121.46C87.2422 128.61 88.2922 134.07 90.6022 139.75C94.1722 149.21 103.212 148.79 111.412 142.06C125.912 130.29 133.272 108.85 134.742 87.8305C116.032 92.4505 102.792 88.0405 92.4922 72.7005C81.7722 57.1505 78.6222 40.5405 83.0322 23.0905C86.4022 9.01049 98.3822 -1.49951 110.992 0.180486C123.182 1.65049 132.012 12.1605 137.262 20.7805C145.252 34.2305 148.192 48.7405 149.032 63.8705C150.712 88.6705 146.932 109.9 133.272 134.49C129.702 141.43 124.022 149.2 117.512 154.25C105.322 163.5 91.4522 161.19 83.0422 149.84C77.7822 143.11 75.0522 133.02 75.8922 123.35ZM137.062 72.6905C137.062 53.1405 130.122 24.9805 118.562 15.7305C110.782 9.42049 103.852 10.6905 100.062 19.5105C92.7022 34.6405 97.7522 60.0805 110.362 71.6405C118.142 78.7905 129.072 79.6305 137.062 72.6905Z" fill="#93AABB"/>
<path d="M194.093 144.901C148.733 161.021 105.223 182.741 60.3028 201.851C58.5928 198.451 56.3428 196.591 56.5528 192.931C100.263 171.141 144.673 150.661 190.963 134.631C193.893 138.921 194.413 140.301 194.093 144.901Z" fill="#93AABB"/>
</g>
<defs>
<clipPath id="clip0">
<rect width="194.17" height="201.84" fill="white"/>
</clipPath>
</defs>
</svg>
