<svg width="172" height="205" viewBox="0 0 172 205" fill="none" xmlns="http://www.w3.org/2000/svg">
<g clip-path="url(#clip0)">
<path d="M99.8511 99.0907C88.0811 99.7207 77.3611 99.5107 66.2211 99.0907C58.0211 98.8807 55.7111 96.9907 55.9211 88.7907C56.7611 63.9907 63.2811 40.0307 68.1111 15.8507C68.7411 12.2807 69.7911 8.70066 70.6311 5.34066C73.5711 4.08066 76.0911 4.08066 79.0411 5.34066L68.1111 87.9507H100.271C101.951 58.7307 105.951 29.5207 109.731 0.0906593C113.511 -0.329341 116.031 0.720659 119.401 2.40066C117.091 30.3607 115.201 58.5207 114.991 87.3207H128.231C129.281 90.8907 128.021 93.4207 127.391 96.5707C123.401 97.2007 119.821 97.6207 115.201 98.4607V166.141C102.171 168.451 99.6511 165.931 99.8611 153.741C100.271 135.881 99.8511 117.591 99.8511 99.0907Z" fill="#93AABB"/>
<path d="M171.171 147.331C125.811 163.451 82.3009 185.171 37.3809 204.281C35.6709 200.881 33.4209 199.021 33.6309 195.361C77.3409 173.571 121.751 153.091 168.041 137.061C170.971 141.351 171.491 142.731 171.171 147.331Z" fill="#93AABB"/>
<path d="M5.21989 43.8098C-0.460108 42.5498 -0.880108 39.8198 1.01989 35.8198C6.89989 24.0498 14.2499 13.3298 21.8199 2.60984C24.3399 -0.750156 29.3899 0.509844 33.7999 0.0898438L35.0599 26.1498C36.7399 54.7398 35.6899 83.7398 37.5799 112.54C38.4199 126.62 38.4199 141.13 40.7299 155.42C41.9899 162.36 34.6299 162.78 30.6399 165.09C28.1199 163.83 27.9099 162.36 27.6999 160.47C25.5999 145.13 24.7599 129.36 24.7599 114.02C24.7599 81.8598 24.7599 49.6998 24.1299 17.5398C16.9899 25.9398 12.3599 35.8198 5.21989 43.8098Z" fill="#93AABB"/>
</g>
<defs>
<clipPath id="clip0">
<rect width="171.25" height="204.28" fill="white"/>
</clipPath>
</defs>
</svg>
