<svg width="140" height="196" viewBox="0 0 140 196" fill="none" xmlns="http://www.w3.org/2000/svg">
<g clip-path="url(#clip0)">
<path d="M69.7401 43.2502C65.3301 45.3502 63.6401 45.5602 59.6501 43.6702C58.8101 36.5202 57.3401 28.9602 54.8201 21.3902C53.3501 16.3502 49.5701 12.1402 44.1001 11.3002C38.0001 10.0402 31.0701 11.9302 27.2801 16.3402C21.1801 23.7002 18.0301 32.9502 16.3501 41.7702C11.7301 65.5202 11.9401 87.8002 17.4001 111.34C18.8701 117.86 22.0201 125.63 26.2301 131.1C34.4301 142.45 48.3001 141.19 54.6101 128.79C58.6001 121.22 59.8601 113.24 61.1301 105.25C63.6501 103.15 66.1701 102.73 68.7001 103.99C71.4301 105.46 71.0101 107.98 70.8001 110.3C69.7501 120.39 67.0201 129.85 61.3401 138.05C49.3601 155.29 26.8701 154.44 15.1001 136.16C7.31008 124.18 3.11008 110.72 1.64008 96.6402C-0.459919 78.5602 -1.08992 60.2802 3.11008 41.9902C6.47008 29.5902 9.63008 18.4502 19.0801 9.4102C36.1101 -6.5598 56.0701 -0.889805 64.4801 16.5602C68.4801 24.9702 69.3201 33.7902 69.7401 43.2502Z" fill="#93AABB"/>
<path d="M139.39 139.001C94.0296 155.121 50.5196 176.841 5.59963 195.941C3.88963 192.541 1.63963 190.681 1.84963 187.021C45.5596 165.231 89.9696 144.751 136.26 128.721C139.19 133.021 139.7 134.401 139.39 139.001Z" fill="#93AABB"/>
</g>
<defs>
<clipPath id="clip0">
<rect width="139.47" height="195.94" fill="white"/>
</clipPath>
</defs>
</svg>
