<svg width="197" height="203" viewBox="0 0 197 203" fill="none" xmlns="http://www.w3.org/2000/svg">
<g clip-path="url(#clip0)">
<path d="M67.0597 78.1895C66.4297 97.7395 62.8597 115.81 53.3997 132.63C47.5097 143.77 34.2697 151.55 25.2297 149.03C17.8697 147.14 13.8797 141.25 10.5197 135.16C3.1597 121.92 1.4797 107.2 0.639701 92.2795C-0.620299 74.8295 -0.410299 56.9695 4.8397 39.9395C6.0997 36.5795 7.1497 33.4195 8.6197 30.4795C18.5097 9.66952 39.3197 8.19952 52.1397 27.3295C62.8597 42.8795 66.4297 60.3295 67.0597 78.1895ZM13.2497 83.6595C12.8297 89.5395 13.6697 97.1095 14.2997 104.68C15.5597 114.35 17.6597 123.81 23.1297 131.79C27.7497 138.73 33.0097 139.15 38.8897 133.26C43.5097 129.27 46.0397 123.8 47.9297 117.71C52.7597 101.53 54.6597 84.4995 54.6597 67.4695C54.6597 54.8595 50.2497 43.2995 42.4697 33.2095C34.8997 23.3295 23.9697 25.0095 19.1397 36.7795C18.2997 38.6695 17.8797 40.7695 17.4597 42.8795C14.2997 55.6995 13.2497 68.7295 13.2497 83.6595Z" fill="#93AABB"/>
<path d="M106.369 61.38C113.099 60.96 118.769 59.49 124.659 59.7C134.119 60.12 145.049 65.16 146.939 72.73C154.719 100.26 150.509 125.7 128.439 147.77C119.189 157.02 104.899 164.59 91.2394 162.06C81.1494 160.17 72.7395 150.29 71.6895 140.41C73.7895 138.31 79.2594 139.36 81.7794 138.1C83.6694 144.41 85.7695 149.66 93.9695 150.92C102.799 151.97 111.629 147.77 117.089 142.3C134.539 124.85 137.059 105.31 134.329 83.03C133.069 72.31 127.809 68.53 115.409 70.84C109.099 72.1 103.009 74.41 96.6994 75.46C92.0794 76.3 87.4494 77.35 83.6694 72.31C96.4894 52.55 108.259 32.37 120.659 10.3C114.139 13.03 109.099 15.34 104.469 17.24C97.7395 19.97 91.6495 22.28 85.7595 25.23C80.0795 27.96 77.1395 26.49 74.8295 21.03C89.7595 12.19 106.369 5.68 122.969 0C135.159 9.04 135.369 10.09 130.119 20.39C124.229 32.16 118.139 43.51 110.779 54.65C109.309 56.54 108.049 58.43 106.369 61.38Z" fill="#93AABB"/>
<path d="M196.19 145.559C150.83 161.679 107.32 183.399 62.4004 202.509C60.6904 199.109 58.4404 197.249 58.6504 193.589C102.36 171.799 146.77 151.319 193.06 135.289C196 139.579 196.51 140.959 196.19 145.559Z" fill="#93AABB"/>
</g>
<defs>
<clipPath id="clip0">
<rect width="196.27" height="202.51" fill="white"/>
</clipPath>
</defs>
</svg>
