<svg width="178" height="195" viewBox="0 0 178 195" fill="none" xmlns="http://www.w3.org/2000/svg">
<g clip-path="url(#clip0)">
<path d="M67.0617 69.9903C66.4317 89.5403 62.8617 107.61 53.4017 124.43C47.5217 135.57 34.2717 143.35 25.2317 140.82C17.8717 138.93 13.8817 133.04 10.5217 126.95C3.16165 113.71 1.48165 99.0003 0.641654 84.0803C-0.618346 66.6303 -0.408346 48.7703 4.84165 31.7403C6.10165 28.3803 7.15165 25.2203 8.62165 22.2803C18.5117 1.47031 39.3217 0.000304222 52.1417 19.1303C62.8617 34.6803 66.4317 52.1303 67.0617 69.9903ZM13.2517 75.4603C12.8317 81.3503 13.6717 88.9103 14.3017 96.4803C15.5617 106.15 17.6617 115.61 23.1317 123.59C27.7517 130.53 33.0117 130.95 38.8917 125.06C43.5117 121.07 46.0417 115.6 47.9317 109.51C52.7617 93.3303 54.6617 76.3003 54.6617 59.2703C54.6617 46.6603 50.2517 35.1003 42.4717 25.0103C34.9017 15.1303 23.9717 16.8103 19.1417 28.5803C18.3017 30.4703 17.8817 32.5703 17.4617 34.6803C14.3017 47.5003 13.2517 60.5403 13.2517 75.4603Z" fill="#93AABB"/>
<path d="M107.631 9.67C96.4906 9.88 86.4006 13.45 76.3106 15.34C73.7906 12.61 74.4206 9.88 74.8406 6.72C88.5006 3.15 101.951 0.42 116.251 0C120.871 0 122.141 2.52 120.241 7.78L107.631 43.09C99.2206 68.1 96.0706 94.38 91.6606 120.23C89.9806 128.85 88.9306 137.47 87.4606 146.29C84.3106 146.92 81.1506 147.34 77.1606 145.03C79.2606 121.91 82.2006 99 86.8306 76.09C91.2406 53.18 99.4306 31.74 107.631 9.67Z" fill="#93AABB"/>
<path d="M177.69 137.36C132.33 153.48 88.8204 175.2 43.9004 194.31C42.1904 190.91 39.9404 189.05 40.1504 185.39C83.8604 163.6 128.27 143.12 174.56 127.09C177.5 131.38 178.01 132.76 177.69 137.36Z" fill="#93AABB"/>
</g>
<defs>
<clipPath id="clip0">
<rect width="177.78" height="194.31" fill="white"/>
</clipPath>
</defs>
</svg>
