<svg id="Layer_1" enable-background="new 0 0 512 512" height="512" viewBox="0 0 512 512" width="512" xmlns="http://www.w3.org/2000/svg"><g><path d="m390.881 512 95.119-96.37h-95.119z"/><path d="m256 122.481c33.889 0 61.459-27.473 61.459-61.241 0-33.767-27.57-61.24-61.459-61.24s-61.459 27.473-61.459 61.24c0 33.769 27.57 61.241 61.459 61.241z"/><path d="m428.5 53.74h-81.35c.21 2.47.31 4.97.31 7.5 0 50.31-41.03 91.24-91.46 91.24s-91.46-40.93-91.46-91.24c0-2.53.1-5.03.31-7.5h-81.35c-31.71 0-57.5 25.72-57.5 57.33v343.6c0 31.61 25.79 57.33 57.5 57.33h277.76v-111.37c0-8.28 6.72-15 15-15h109.74v-274.56c0-31.61-25.79-57.33-57.5-57.33zm-128.459 338.699h-178.082c-8.284 0-15-6.716-15-15s6.716-15 15-15h178.081c8.284 0 15 6.716 15 15s-6.715 15-14.999 15zm90-60h-268.082c-8.284 0-15-6.716-15-15s6.716-15 15-15h268.081c8.284 0 15 6.716 15 15s-6.715 15-14.999 15zm-283.082-75c0-8.284 6.716-15 15-15h238.081c8.284 0 15 6.716 15 15s-6.716 15-15 15h-238.081c-8.284 0-15-6.715-15-15zm283.082-45h-268.082c-8.284 0-15-6.716-15-15s6.716-15 15-15h268.081c8.284 0 15 6.716 15 15s-6.715 15-14.999 15z"/></g></svg>